<?xml version="1.0" encoding="utf-8"?>
<svg id="Layer_1" xmlns="http://www.w3.org/2000/svg" viewBox="0 0 128.15 84.76" xmlns:bx="https://boxy-svg.com" width="128.15px" height="84.76px"><defs><style>.cls-1{stroke-width:2px;}.cls-1,.cls-2{fill:#ea3a00;stroke:#ea3a00;stroke-miterlimit:10;}.cls-2{stroke-width:3px;}</style><bx:export><bx:file format="svg"/><bx:file format="svg" href="#object-0" path="Untitled 2.svg"/><bx:file format="svg" href="#object-1" path="Untitled 3.svg"/><bx:file format="svg" href="#object-2" path="Untitled 4.svg"/><bx:file format="svg" href="#Generative_Object" path="Untitled 5.svg"/><bx:file format="svg" href="#object-3" path="Untitled 6.svg"/></bx:export><style bx:fonts="Cousine">@import url(https://fonts.googleapis.com/css2?family=Cousine%3Aital%2Cwght%400%2C400%3B0%2C700%3B1%2C400%3B1%2C700&amp;display=swap);</style></defs><path class="cls-2" d="M 38.72 35.194 C 40.272 35.426 40.927 36.498 41.097 37.909 C 41.215 38.885 41.215 39.863 41.183 40.844 C 41.131 42.601 41.208 44.357 41.144 46.113 C 41.119 46.734 40.998 47.342 40.716 47.875 C 40.089 49.064 39.124 49.88 37.824 50.252 C 37.399 50.374 36.955 50.453 36.521 50.425 C 36.081 50.397 35.656 50.71 35.216 50.447 C 35.15 50.409 35.044 50.447 34.958 50.441 C 34.052 50.355 33.146 50.475 32.24 50.465 C 27.946 50.416 23.653 50.444 19.36 50.444 C 16.679 50.444 13.999 50.403 11.319 50.468 C 10.446 50.491 9.581 50.359 8.713 50.444 C 8.663 50.45 8.61 50.435 8.563 50.444 C 8.167 50.557 7.775 50.503 7.369 50.456 C 6.91 50.403 6.445 50.384 5.995 50.287 C 4.029 49.87 2.685 48.355 2.462 46.226 C 2.344 45.1 2.384 43.967 2.387 42.838 C 2.39 41.447 2.366 40.054 2.418 38.662 C 2.434 38.241 2.481 37.827 2.561 37.42 C 2.66 36.918 2.837 36.444 3.206 36.062 C 3.494 35.764 3.815 35.494 4.214 35.394 C 4.726 35.269 5.194 35.021 5.781 35.137 C 6.485 35.278 7.149 35.441 7.714 35.911 C 8.793 36.808 9.166 38.053 9.345 39.376 C 9.498 40.512 9.523 41.657 9.504 42.801 C 9.494 43.473 9.622 43.592 10.282 43.592 L 33.214 43.592 C 34.049 43.592 34.077 43.57 34.071 42.726 C 34.058 41.246 34.092 39.772 34.442 38.323 C 34.824 36.743 35.758 35.695 37.312 35.243 C 37.616 35.156 38.572 35.172 38.727 35.194 L 38.72 35.194 Z" style="transform-box: fill-box; transform-origin: 50% 50%;" id="object-0"/><path class="cls-2" d="M 7.86 50.708 C 7.882 51.096 7.813 51.485 7.819 51.874 C 7.825 52.432 8.198 52.783 8.715 52.777 C 9.038 52.774 9.362 52.786 9.684 52.777 C 10.192 52.758 10.376 52.583 10.466 52.066 C 10.543 51.617 10.481 51.162 10.502 50.711" style="transform-box: fill-box; transform-origin: 50% 50%;" id="object-1"/><path class="cls-2" d="M 33.062 50.708 C 33.062 51.109 33.059 51.511 33.062 51.912 C 33.068 52.502 33.456 52.764 33.919 52.777 C 34.241 52.783 34.564 52.786 34.886 52.777 C 35.38 52.764 35.624 52.529 35.705 52.028 C 35.776 51.589 35.721 51.15 35.742 50.711" style="transform-box: fill-box; transform-origin: 50% 50%;" id="object-2"/><g id="Generative_Object" style="transform-origin: 63.4286px 18.9238px;" transform="matrix(0.310224, 0, 0, 0.3136, -41.856094, 13.278324)"><path class="cls-1" d="M37.1,6.72c1.52,1.63-.64,5.54-1.06,7.72-.53,2.75-.34,4.85.22,7.36.02.08.1.18.06.3-.69,3.87,3.57,8.21,3.92,10.93.47,3.71-3.87,4.69-6.59,3.06-5.87-3.52-3.33-9.32,1.99-13.62-.24-.4-.84-.58-1.25-.79-4.83-2.55-8.1-6.27-4.5-12.4,1.45-2.48,5.15-4.77,7.2-2.57Z"/><path class="cls-1" d="M59.26,14.26c.36-1.38.77-2.96,1.34-4.31.98-2.32,3.81-5.56,2.71-7.59-2.37-4.39-11.38,2.69-9,9.04.67,1.8,2.5,3.32,3.12,5.23-3.17,2.76-6.71,6.12-4.55,9.9,1.5,2.61,6.4,3.51,6.49-.45.06-2.84-2.1-6.14-.52-9.66l.02-.16c.07-.67.22-1.34.39-1.99Z"/><path class="cls-1" d="M79.89,14.94c.69-1.41,1.6-2.65,2.56-3.93,1.09-1.44,4.05-3.4,2.38-5.1-2.12-2.15-6.27.69-7.64,3.03-1.71,2.92-.43,4.87.03,7.56l.03.14c-1.65,1.96-4.58,2.91-5.03,5.61-.35,2.1,1.66,6.49,4.57,4.49,1.52-1.04,1.17-4.66,1.48-6.37.28-1.51.92-3.98,1.62-5.42Z"/><path class="cls-1" d="M 95.414 20.394 C 96.624 21.404 101.472 24.091 102.112 24.814 C 102.752 25.537 102.737 26.06 101.078 25.652 C 100.312 25.464 96.164 23.11 95.174 22.46"/><path class="cls-1" d="M 93.376 21.48 C 93.42 21.38 93.322 20.898 93.331 20.698 C 93.331 20.652 93.322 20.616 93.331 20.57 C 93.384 19.642 93.055 18.869 93.393 17.859 C 94.23 15.394 98.505 13.484 100.437 14.958 C 103.091 16.977 98.621 18.542 97.24 19.379 C 95.05 20.707 95.922 20.634 95.352 22.735 C 95.335 22.79 95.335 22.835 95.317 22.89 C 95.005 24.045 94.293 27.629 93.874 28.375 C 93.269 29.44 91.862 29.558 91.114 28.894 C 90.312 28.184 90.063 25.51 90.455 24.409 C 91.051 22.717 93.18 21.908 93.376 21.498 L 93.376 21.48 Z" style=""/><path class="cls-1" d="M70.16,14.35c.55-1.51,1.02-2.68,1.85-4.12,1.2-2.09,4.79-5.34,2.98-7.21-3.09-3.19-9.32,2.75-9.13,7.07.1,2.2,2.13,3.73,1.83,5.78l-.22.24c-2.98,3.28-6.44,5.54-3.73,9.58,1.17,1.75,4.3,2.69,5.17-.16.65-2.14-.84-6.78.68-9.44l.04-.15c.17-.54.34-1.08.53-1.6Z"/><path class="cls-1" d="M47.63,16.11c0-.06.04-.13.05-.2.25-1.9.49-3.76,1.15-5.66.76-2.2,3.26-5.25,1.25-6.97-2.3-1.97-5.9.48-7.32,2.94-2.95,5.11-.92,8.79,3.12,11.37.15.28-.15.49-.27.73-.04.09-.13.17-.18.26-1.52,2.76-4.16,5.01-4.12,8.33.04,3.72,6.76,6.84,8.27,2.51.48-1.36-1.68-5.47-1.97-7.27-.22-1.36-.18-2.82-.13-4.23v-.15c.03-.55.07-1.1.14-1.65Z"/><path class="cls-1" d="M 87.613 17.913 C 88.193 16.789 88.957 15.801 89.765 14.782 C 90.681 13.635 93.17 12.073 91.765 10.719 C 89.984 9.006 86.495 11.268 85.343 13.133 C 83.906 15.459 84.982 17.012 85.368 19.156 L 85.394 19.266 C 84.007 20.829 81.544 21.586 81.166 23.737 C 80.871 25.41 82.561 28.907 85.007 27.313 C 86.284 26.486 85.991 23.601 86.251 22.239 C 86.487 21.035 87.025 19.068 87.613 17.921 L 87.613 17.913 Z" style=""/><path stroke-width="0" d="M 24.394 24.056 C 24.473 24.027 47.984 13.736 64.462 14.336 C 83.355 15.023 95.652 20.481 96.012 20.519 C 96.649 20.586 95.763 22.119 95.492 22.183 C 95.363 22.213 78.369 14.989 60.472 15.865 C 43.017 16.72 25.308 25.942 25.039 25.914 C 24.527 25.861 24.243 24.113 24.394 24.056 Z" style="stroke-width: 2px; fill: rgb(234, 58, 0); paint-order: stroke; stroke: rgb(234, 58, 0);"/></g><text style="fill: rgb(234, 58, 0); font-family: Cousine; font-size: 21.9px; font-weight: 700; word-spacing: 0.5px; white-space: pre;" x="44.052" y="48.979" id="object-3">PHURN</text></svg>